<svg xmlns="http://www.w3.org/2000/svg" xmlns:xlink="http://www.w3.org/1999/xlink" width="3271.555" height="54.874in"
    viewBox="0 0 2453.67 3950.93" color-interpolation-filters="sRGB" fill="none" fill-rule="evenodd" font-size="12"
    overflow="visible" stroke-linecap="square" stroke-miterlimit="3">
    <style>
        .st3 {
            stroke: #156193;
            stroke-linecap: butt;
            stroke-width: 3.12
        }

        .st4 {
            fill: #051825;
            font-family: 宋体;
            font-size: .833336em
        }

        .st5 {
            marker-end: url(#mrkr4-15);
            stroke-linecap: round;
            stroke-linejoin: round;
            stroke-width: 1
        }

        .st5,
        .st6,
        .st7 {
            stroke: #156193
        }

        .st6 {
            fill: #156193;
            fill-opacity: 1;
            stroke-opacity: 1;
            stroke-width: .28409090909091
        }

        .st7 {
            marker-end: url(#mrkr4-205);
            stroke-linecap: round;
            stroke-linejoin: round;
            stroke-width: 1
        }

        .st8 {
            font-size: 1em
        }
    </style>
    <defs id="Patterns_And_Gradients">
        <linearGradient id="grad0-4" x1="0" y1="0" x2="1" y2="0" gradientTransform="rotate(90 .5 .5)">
            <stop offset=".1" stop-color="#2095e2" />
            <stop offset="1" stop-color="#146093" />
        </linearGradient>
    </defs>
    <defs id="Markers">
        <marker id="mrkr4-15" class="st6" refX="-6.68" orient="auto" markerUnits="strokeWidth" overflow="visible">
            <use xlink:href="#lend4" transform="scale(-3.52)" />
        </marker>
        <marker id="mrkr4-205" class="st6" refX="-7.04" orient="auto" markerUnits="strokeWidth" overflow="visible">
            <use xlink:href="#lend4" transform="scale(-3.52)" />
        </marker>
        <marker id="mrkr13-1142" class="st6" refX="10.2" orient="auto" markerUnits="strokeWidth" overflow="visible">
            <use xlink:href="#lend13" transform="scale(3.52)" />
        </marker>
        <marker id="mrkr13-1144" class="st6" refX="-10.2" orient="auto" markerUnits="strokeWidth" overflow="visible">
            <use xlink:href="#lend13" transform="scale(-3.52)" />
        </marker>
        <path d="M2 1L0 0l2-1v2" id="lend4" />
        <path d="M3 1L0 0l3-1v2" id="lend13" />
    </defs>
    <g id="shape4-1" transform="translate(1154.83 -1939.46)">
        <path d="M144 3914.21a72 35.278-180 10-144 0 72 35.278-180 10144 0z" fill="url(#grad0-4)" stroke="#fff"
            stroke-linecap="round" stroke-linejoin="round" stroke-width="1.5" /><text x="39.87" y="3919.73" fill="#fff"
            font-family="宋体" font-size="1.333em" font-weight="700">前端技术</text></g>
    <g id="shape8-6" transform="translate(1325.83 -1705.46)">
        <path d="M0 3932.93h90" class="st3" /><text x="20" y="3928.13" class="st4">JavaScript</text></g>
    <g id="shape9-10" transform="translate(1298.83 -1975.46)">
        <path d="M0 3950.93c13.5 0 13.5 63 13.5 126 0 53.05 0 106.09 8.06 121.53l.28.23" class="st5" />
    </g>
    <g id="shape10-16" transform="translate(1037.83 -1012.46)">
        <path d="M0 3932.93h90" class="st3" /><text x="35" y="3928.13" class="st4">HTML</text></g>
    <g id="shape11-20" transform="translate(1154.83 -1975.46)">
        <path d="M0 3950.93c-13.5 0-13.5 236.25-13.5 472.5 0 213.94 0 427.88-10.02 466.38l-.18.31" class="st5" />
    </g>
    <g id="shape12-25" transform="translate(1037.83 -2744.96)">
        <path d="M0 3932.93h90" class="st3" /><text x="37.5" y="3928.13" class="st4">CSS</text></g>
    <g id="shape13-29" transform="translate(1154.83 -1975.46)">
        <path d="M0 3950.93c-13.5 0-13.5-196.88-13.5-393.75 0-176.74 0-353.48-9.77-387.78l-.19-.31" class="st5" />
    </g>
    <g id="shape14-34" transform="translate(1325.83 -3500.96)">
        <path d="M0 3932.93h90" class="st3" /><text x="37.5" y="3928.13" class="st4">API</text></g>
    <g id="shape15-38" transform="translate(1298.83 -1975.46)">
        <path d="M0 3950.93c13.5 0 13.5-385.88 13.5-771.75 0-356.72 0-713.43 10.66-765.31l.15-.33" class="st5" />
    </g>
    <g id="shape16-43" transform="translate(1442.83 -1327.46)">
        <path d="M0 3932.93h90" class="st3" /><text x="35" y="3928.13" class="st4">文法</text></g>
    <g id="shape17-47" transform="translate(1415.83 -1723.46)">
        <path d="M0 3950.93c13.5 0 13.5 94.5 13.5 189 0 81.51 0 163.01 8.66 183.88l.25.27" class="st5" />
    </g>
    <g id="shape18-52" transform="translate(1442.83 -2555.96)">
        <path d="M0 3932.93h90" class="st3" /><text x="35" y="3928.13" class="st4">语义</text></g>
    <g id="shape19-56" transform="translate(1415.83 -1723.46)">
        <path d="M0 3950.93c13.5 0 13.5-212.63 13.5-425.25 0-191.59 0-383.18 9.88-419.21l.18-.31" class="st5" />
    </g>
    <g id="shape20-61" transform="translate(1442.83 -2933.96)">
        <path d="M0 3932.93h90" class="st3" /><text x="30" y="3928.13" class="st4">运行时</text></g>
    <g id="shape21-65" transform="translate(1415.83 -1723.46)">
        <path d="M0 3950.93c13.5 0 13.5-307.13 13.5-614.25 0-281.35 0-562.69 10.38-607.94l.16-.32" class="st5" />
    </g>
    <g id="shape22-70" transform="translate(1559.83 -508.465)">
        <path d="M0 3932.93h90" class="st3" /><text x="35" y="3928.13" class="st4">词法</text></g>
    <g id="shape23-74" transform="translate(1532.83 -1345.46)">
        <path d="M0 3950.93c13.5 0 13.5 204.75 13.5 409.5 0 184.16 0 368.32 9.82 403.5l.19.3" class="st5" />
    </g>
    <g id="shape24-79" transform="translate(1559.83 -1673.96)">
        <path d="M0 3932.93h90" class="st3" /><text x="35" y="3928.13" class="st4">语法</text></g>
    <g id="shape25-83" transform="translate(1532.83 -1345.46)">
        <path d="M0 3950.93c13.5 0 13.5-86.63 13.5-173.25 0-74.33 0-148.67 8.53-168.27l.25-.25" class="st5" />
    </g>
    <g id="shape27-88" transform="translate(1676.83 -193.465)">
        <path d="M0 3932.93h90" class="st3" /><text x="25" y="3928.13" class="st4">空白字符</text></g>
    <g id="shape28-92" transform="translate(1649.83 -526.465)">
        <path d="M0 3950.93c13.5 0 13.5 78.75 13.5 157.5 0 67.19 0 134.39 8.39 152.66l.26.25" class="st5" />
    </g>
    <g id="shape29-97" transform="translate(1676.83 -256.465)">
        <path d="M0 3932.93h90" class="st3" /><text x="30" y="3928.13" class="st4">分行符</text></g>
    <g id="shape30-101" transform="translate(1649.83 -526.465)">
        <path d="M0 3950.93c13.5 0 13.5 63 13.5 126 0 53.05 0 106.09 8.06 121.53l.28.23" class="st5" />
    </g>
    <g id="shape31-106" transform="translate(1676.83 -350.965)">
        <path d="M0 3932.93h90" class="st3" /><text x="35" y="3928.13" class="st4">注释</text></g>
    <g id="shape32-110" transform="translate(1649.83 -526.465)">
        <path d="M0 3950.93c13.5 0 13.5 39.37 13.5 78.75 0 32.29 0 64.58 7.45 75.16l.31.18" class="st5" />
    </g>
    <g id="shape33-115" transform="translate(1676.83 -634.465)">
        <path d="M0 3932.93h90" class="st3" /><text x="17.5" y="3928.13" class="st4">词汇(Token)</text></g>
    <g id="shape34-119" transform="translate(1649.83 -526.465)">
        <path d="M0 3950.93c13.5 0 13.5-31.5 13.5-63 0-25.55 0-51.11 7.21-59.85l.32-.16" class="st5" />
    </g>
    <g id="shape35-124" transform="translate(1793.83 -319.465)">
        <path d="M0 3932.93h90" class="st3" /><text x="25" y="3928.13" class="st4">普通注释</text></g>
    <g id="shape36-128" transform="translate(1766.83 -368.965)">
        <path d="M0 3950.93c10.95 0 13.02 20.72 20.61 28.55l.33.15" class="st5" />
    </g>
    <g id="shape39-133" transform="translate(1793.83 -382.465)">
        <path d="M0 3932.93h90" class="st3" /><text x="32.5" y="3928.13" class="st4">JSDoc</text></g>
    <g id="shape40-137" transform="translate(1766.83 -368.965)">
        <path d="M0 3950.93c10.95 0 13.02-20.72 20.61-28.55l.33-.15" class="st5" />
    </g>
    <g id="shape41-142" transform="translate(1793.83 -445.465)">
        <path d="M0 3932.93h90" class="st3" /><text x="10" y="3928.13" class="st4">关键字和保留字</text></g>
    <g id="shape42-146" transform="translate(1766.83 -652.465)">
        <path d="M0 3950.93c13.5 0 13.5 47.25 13.5 94.5 0 39.13 0 78.26 7.67 90.55l.3.21" class="st5" />
    </g>
    <g id="shape43-151" transform="translate(1793.83 -508.465)">
        <path d="M0 3932.93h90" class="st3" /><text x="30" y="3928.13" class="st4">标识符</text></g>
    <g id="shape44-155" transform="translate(1766.83 -652.465)">
        <path d="M0 3950.93c13.5 0 13.5 31.5 13.5 63 0 25.55 0 51.11 7.21 59.84l.32.16" class="st5" />
    </g>
    <g id="shape45-160" transform="translate(1793.83 -571.465)">
        <path d="M0 3932.93h90" class="st3" /><text x="25" y="3928.13" class="st4">标点符号</text></g>
    <g id="shape46-164" transform="translate(1766.83 -652.465)">
        <path d="M0 3950.93c11.34 0 13.15 44.45 21.44 58.67l.29.23" class="st5" />
    </g>
    <g id="shape47-169" transform="translate(1793.83 -697.465)">
        <path d="M0 3932.93h90" class="st3" /><text x="30" y="3928.13" class="st4">字面量</text></g>
    <g id="shape48-173" transform="translate(1766.83 -652.465)">
        <path d="M0 3950.93c11.34 0 13.15-44.45 21.44-58.68l.29-.22" class="st5" />
    </g>
    <g id="shape49-178" transform="translate(1793.83 -823.465)">
        <path d="M0 3932.93h90" class="st3" /><text x="20" y="3928.13" class="st4">模板字符串</text></g>
    <g id="shape50-182" transform="translate(1766.83 -652.465)">
        <path d="M0 3950.93c13.5 0 13.5-47.25 13.5-94.5 0-39.13 0-78.27 7.67-90.56l.3-.2" class="st5" />
    </g>
    <g id="shape52-187" transform="translate(1910.83 -634.465)">
        <path d="M0 3932.93h90" class="st3" /><text x="35" y="3928.13" class="st4">数值</text></g>
    <g id="shape53-191" transform="translate(1883.83 -715.465)">
        <path d="M0 3950.93c11.34 0 13.15 44.45 21.44 58.67l.29.23" class="st5" />
    </g>
    <g id="shape54-196" transform="translate(1910.83 -697.465)">
        <path d="M0 3932.93h90" class="st3" /><text x="30" y="3928.13" class="st4">字符串</text></g>
    <g id="shape55-200" transform="translate(1883.83 -708.378)">
        <path d="M0 3943.84h19.96" class="st7" />
    </g>
    <g id="shape56-206" transform="translate(1910.83 -760.465)">
        <path d="M0 3932.93h90" class="st3" /><text x="20" y="3928.13" class="st4">正则表达式</text></g>
    <g id="shape57-210" transform="translate(1883.83 -715.465)">
        <path d="M0 3950.93c11.34 0 13.15-44.45 21.44-58.68l.29-.22" class="st5" />
    </g>
    <g id="shape58-215" transform="translate(1676.83 -1012.46)">
        <path d="M0 3932.93h90" class="st3" /><text x="30" y="3928.13" class="st4">表达式</text></g>
    <g id="shape59-219" transform="translate(1649.83 -1691.96)">
        <path d="M0 3950.93c13.5 0 13.5 165.37 13.5 330.75 0 147.15 0 294.31 9.51 324.95l.21.29" class="st5" />
    </g>
    <g id="shape60-224" transform="translate(1676.83 -1453.46)">
        <path d="M0 3932.93h90" class="st3" /><text x="15" y="3928.13" class="st4">语句和语句块</text></g>
    <g id="shape61-228" transform="translate(1649.83 -1691.96)">
        <path d="M0 3950.93c13.5 0 13.5 55.12 13.5 110.25 0 46.05 0 92.11 7.87 106.02l.29.21" class="st5" />
    </g>
    <g id="shape62-233" transform="translate(1676.83 -2020.46)">
        <path d="M0 3932.93h90" class="st3" /><text x="25" y="3928.13" class="st4">函数与类</text></g>
    <g id="shape63-237" transform="translate(1649.83 -1691.96)">
        <path d="M0 3950.93c13.5 0 13.5-86.63 13.5-173.25 0-74.33 0-148.67 8.53-168.27l.25-.25" class="st5" />
    </g>
    <g id="shape64-242" transform="translate(1676.83 -2398.46)">
        <path d="M0 3932.93h90" class="st3" /><text x="20" y="3928.13" class="st4">脚本与模块</text></g>
    <g id="shape65-246" transform="translate(1649.83 -1691.96)">
        <path d="M0 3950.93c13.5 0 13.5-181.13 13.5-362.25 0-161.92 0-323.85 9.65-356.36l.19-.3" class="st5" />
    </g>
    <g id="shape66-251" transform="translate(1793.83 -949.465)">
        <path d="M0 3932.93h90" class="st3" /><text x="30" y="3928.13" class="st4">运算数</text></g>
    <g id="shape67-255" transform="translate(1766.83 -1030.46)">
        <path d="M0 3950.93c11.34 0 13.15 44.45 21.44 58.67l.29.23" class="st5" />
    </g>
    <g id="shape68-260" transform="translate(1793.83 -1106.96)">
        <path d="M0 3932.93h90" class="st3" /><text x="30" y="3928.13" class="st4">运算符</text></g>
    <g id="shape69-264" transform="translate(1766.83 -1030.46)">
        <path d="M0 3950.93c13.5 0 13.5-23.63 13.5-47.25 0-18.94 0-37.88 6.96-44.65l.33-.13" class="st5" />
    </g>
    <g id="shape70-269" transform="translate(1910.83 -886.465)">
        <path d="M0 3932.93h90" class="st3" /><text x="30" y="3928.13" class="st4">字面量</text></g>
    <g id="shape71-273" transform="translate(1883.83 -967.465)">
        <path d="M0 3950.93c11.34 0 13.15 44.45 21.44 58.67l.29.23" class="st5" />
    </g>
    <g id="shape72-278" transform="translate(1910.83 -949.465)">
        <path d="M0 3932.93h90" class="st3" /><text x="20" y="3928.13" class="st4">变量和字段</text></g>
    <g id="shape73-282" transform="translate(1883.83 -960.378)">
        <path d="M0 3943.84h19.96" class="st7" />
    </g>
    <g id="shape74-287" transform="translate(1910.83 -1012.46)">
        <path d="M0 3932.93h90" class="st3" /><text x="10" y="3928.13" class="st4">函数和箭头函数</text></g>
    <g id="shape75-291" transform="translate(1883.83 -967.465)">
        <path d="M0 3950.93c11.34 0 13.15-44.45 21.44-58.68l.29-.22" class="st5" />
    </g>
    <g id="shape77-296" transform="translate(1910.83 -1075.46)">
        <path d="M0 3932.93h90" class="st3" /><text x="30" y="3928.13" class="st4">优先级</text></g>
    <g id="shape78-300" transform="translate(1883.83 -1124.96)">
        <path d="M0 3950.93c10.95 0 13.02 20.72 20.61 28.55l.33.15" class="st5" />
    </g>
    <g id="shape79-305" transform="translate(1910.83 -1138.46)">
        <path d="M0 3932.93h90" class="st3" /><text x="30" y="3928.13" class="st4">结合性</text></g>
    <g id="shape80-309" transform="translate(1883.83 -1124.96)">
        <path d="M0 3950.93c10.95 0 13.02-20.72 20.61-28.55l.33-.15" class="st5" />
    </g>
    <g id="shape82-314" transform="translate(1793.83 -1201.46)">
        <path d="M0 3932.93h90" class="st3" /><text x="30" y="3928.13" class="st4">空语句</text></g>
    <g id="shape83-318" transform="translate(1766.83 -1471.46)">
        <path d="M0 3950.93c13.5 0 13.5 63 13.5 126 0 53.05 0 106.09 8.06 121.53l.28.23" class="st5" />
    </g>
    <g id="shape84-323" transform="translate(1793.83 -1264.46)">
        <path d="M0 3932.93h90" class="st3" /><text x="30" y="3928.13" class="st4">语句块</text></g>
    <g id="shape85-327" transform="translate(1766.83 -1471.46)">
        <path d="M0 3950.93c13.5 0 13.5 47.25 13.5 94.5 0 39.13 0 78.26 7.67 90.55l.3.21" class="st5" />
    </g>
    <g id="shape86-332" transform="translate(1793.83 -1327.46)">
        <path d="M0 3932.93h90" class="st3" /><text x="15" y="3928.13" class="st4">声明与初始化</text></g>
    <g id="shape87-336" transform="translate(1766.83 -1471.46)">
        <path d="M0 3950.93c13.5 0 13.5 31.5 13.5 63 0 25.55 0 51.11 7.21 59.84l.32.16" class="st5" />
    </g>
    <g id="shape88-341" transform="translate(1793.83 -1390.46)">
        <path d="M0 3932.93h90" class="st3" /><text x="25" y="3928.13" class="st4">赋值语句</text></g>
    <g id="shape89-345" transform="translate(1766.83 -1471.46)">
        <path d="M0 3950.93c11.34 0 13.15 44.45 21.44 58.67l.29.23" class="st5" />
    </g>
    <g id="shape90-350" transform="translate(1793.83 -1453.46)">
        <path d="M0 3932.93h90" class="st3" /><text x="20" y="3928.13" class="st4">分支与循环</text></g>
    <g id="shape91-354" transform="translate(1766.83 -1464.38)">
        <path d="M0 3943.84h19.96" class="st7" />
    </g>
    <g id="shape92-359" transform="translate(1793.83 -1516.46)">
        <path d="M0 3932.93h90" class="st3" /><text x="15" y="3928.13" class="st4">带标签的语句</text></g>
    <g id="shape93-363" transform="translate(1766.83 -1471.46)">
        <path d="M0 3950.93c11.34 0 13.15-44.45 21.44-58.68l.29-.22" class="st5" />
    </g>
    <g id="shape94-368" transform="translate(1793.83 -1579.46)">
        <path d="M0 3932.93h90" class="st3" /><text x="7.5" y="3928.13" class="st4">break和continue</text></g>
    <g id="shape95-372" transform="translate(1766.83 -1471.46)">
        <path d="M0 3950.93c13.5 0 13.5-31.5 13.5-63 0-25.55 0-51.11 7.21-59.85l.32-.16" class="st5" />
    </g>
    <g id="shape96-377" transform="translate(1793.83 -1642.46)">
        <path d="M0 3932.93h90" class="st3" /><text x="17.5" y="3928.13" class="st4">try...catch</text></g>
    <g id="shape97-381" transform="translate(1766.83 -1471.46)">
        <path d="M0 3950.93c13.5 0 13.5-47.25 13.5-94.5 0-39.13 0-78.27 7.67-90.56l.3-.2" class="st5" />
    </g>
    <g id="shape99-386" transform="translate(1793.83 -1705.46)">
        <path d="M0 3932.93h90" class="st3" /><text x="20" y="3928.13" class="st4">解构和展开</text></g>
    <g id="shape100-390" transform="translate(1766.83 -1471.46)">
        <path d="M0 3950.93c13.5 0 13.5-63 13.5-126 0-53.05 0-106.1 8.06-121.53l.28-.23" class="st5" />
    </g>
    <g id="shape103-395" transform="translate(1793.83 -1957.46)">
        <path d="M0 3932.93h90" class="st3" /><text x="35" y="3928.13" class="st4">函数</text></g>
    <g id="shape104-399" transform="translate(1766.83 -2038.46)">
        <path d="M0 3950.93c11.34 0 13.15 44.45 21.44 58.67l.29.23" class="st5" />
    </g>
    <g id="shape105-404" transform="translate(1793.83 -2177.96)">
        <path d="M0 3932.93h90" class="st3" /><text x="15" y="3928.13" class="st4">构造函数与类</text></g>
    <g id="shape106-408" transform="translate(1766.83 -2038.46)">
        <path d="M0 3950.93c13.5 0 13.5-39.38 13.5-78.75 0-32.29 0-64.58 7.45-75.16l.31-.18" class="st5" />
    </g>
    <g id="shape107-413" transform="translate(1910.83 -1894.46)">
        <path d="M0 3932.93h90" class="st3" /><text x="35" y="3928.13" class="st4">参数</text></g>
    <g id="shape108-417" transform="translate(1883.83 -1975.46)">
        <path d="M0 3950.93c11.34 0 13.15 44.45 21.44 58.67l.29.23" class="st5" />
    </g>
    <g id="shape109-422" transform="translate(1910.83 -1957.46)">
        <path d="M0 3932.93h90" class="st3" /><text x="30" y="3928.13" class="st4">执行体</text></g>
    <g id="shape110-426" transform="translate(1883.83 -1968.38)">
        <path d="M0 3943.84h19.96" class="st7" />
    </g>
    <g id="shape111-431" transform="translate(1910.83 -2020.46)">
        <path d="M0 3932.93h90" class="st3" /><text x="35" y="3928.13" class="st4">结果</text></g>
    <g id="shape112-435" transform="translate(1883.83 -1975.46)">
        <path d="M0 3950.93c11.34 0 13.15-44.45 21.44-58.68l.29-.22" class="st5" />
    </g>
    <g id="shape113-440" transform="translate(1910.83 -2083.46)">
        <path d="M0 3932.93h90" class="st3" /><text x="35" y="3928.13" class="st4">this</text></g>
    <g id="shape114-444" transform="translate(1883.83 -2195.96)">
        <path d="M0 3950.93c13.5 0 13.5 23.62 13.5 47.25 0 18.94 0 37.88 6.96 44.65l.33.13" class="st5" />
    </g>
    <g id="shape115-449" transform="translate(1910.83 -2146.46)">
        <path d="M0 3932.93h90" class="st3" /><text x="25" y="3928.13" class="st4">原型对象</text></g>
    <g id="shape116-453" transform="translate(1883.83 -2195.96)">
        <path d="M0 3950.93c10.95 0 13.02 20.72 20.61 28.55l.33.15" class="st5" />
    </g>
    <g id="shape117-458" transform="translate(1910.83 -2209.46)">
        <path d="M0 3932.93h90" class="st3" /><text x="22.5" y="3928.13" class="st4">super调用</text></g>
    <g id="shape118-462" transform="translate(1883.83 -2195.96)">
        <path d="M0 3950.93c10.95 0 13.02-20.72 20.61-28.55l.33-.15" class="st5" />
    </g>
    <g id="shape119-467" transform="translate(1910.83 -2272.46)">
        <path d="M0 3932.93h90" class="st3" /><text x="20" y="3928.13" class="st4">类声明语法</text></g>
    <g id="shape120-471" transform="translate(1883.83 -2195.96)">
        <path d="M0 3950.93c13.5 0 13.5-23.63 13.5-47.25 0-18.94 0-37.88 6.96-44.65l.33-.13" class="st5" />
    </g>
    <g id="shape122-476" transform="translate(1793.83 -2335.46)">
        <path d="M0 3932.93h90" class="st3" /><text x="25" y="3928.13" class="st4">严格模式</text></g>
    <g id="shape123-480" transform="translate(1766.83 -2416.46)">
        <path d="M0 3950.93c11.34 0 13.15 44.45 21.44 58.67l.29.23" class="st5" />
    </g>
    <g id="shape124-485" transform="translate(1793.83 -2398.46)">
        <path d="M0 3932.93h90" class="st3" /><text x="25" y="3928.13" class="st4">模块导出</text></g>
    <g id="shape125-489" transform="translate(1766.83 -2409.38)">
        <path d="M0 3943.84h19.96" class="st7" />
    </g>
    <g id="shape126-494" transform="translate(1793.83 -2461.46)">
        <path d="M0 3932.93h90" class="st3" /><text x="25" y="3928.13" class="st4">模块导入</text></g>
    <g id="shape127-498" transform="translate(1766.83 -2416.46)">
        <path d="M0 3950.93c11.34 0 13.15-44.45 21.44-58.68l.29-.22" class="st5" />
    </g>
    <g id="shape128-503" transform="translate(1559.83 -2524.46)">
        <path d="M0 3932.93h90" class="st3" /><text x="30" y="3928.13" class="st4">作用域</text></g>
    <g id="shape129-507" transform="translate(1532.83 -2573.96)">
        <path d="M0 3950.93c10.95 0 13.02 20.72 20.61 28.55l.33.15" class="st5" />
    </g>
    <g id="shape130-512" transform="translate(1559.83 -2587.46)">
        <path d="M0 3932.93h90" class="st3" /><text x="20" y="3928.13" class="st4">左值和右值</text></g>
    <g id="shape131-516" transform="translate(1532.83 -2573.96)">
        <path d="M0 3950.93c10.95 0 13.02-20.72 20.61-28.55l.33-.15" class="st5" />
    </g>
    <g id="shape132-521" transform="translate(1793.83 -1768.46)">
        <path d="M0 3932.93h90" class="st3" /><text x="20" y="3928.13" class="st4">生成器函数</text></g>
    <g id="shape133-525" transform="translate(1766.83 -2038.46)">
        <path d="M0 3950.93c13.5 0 13.5 63 13.5 126 0 53.05 0 106.09 8.06 121.53l.28.23" class="st5" />
    </g>
    <g id="shape134-530" transform="translate(1793.83 -1831.46)">
        <path d="M0 3932.93h90" class="st3" /><text x="25" y="3928.13" class="st4">异步函数</text></g>
    <g id="shape135-534" transform="translate(1766.83 -2038.46)">
        <path d="M0 3950.93c13.5 0 13.5 47.25 13.5 94.5 0 39.13 0 78.26 7.67 90.55l.3.21" class="st5" />
    </g>
    <g id="shape137-539" transform="translate(1559.83 -2807.96)">
        <path d="M0 3932.93h90" class="st3" /><text x="25" y="3928.13" class="st4">类型系统</text></g>
    <g id="shape138-543" transform="translate(1532.83 -2951.96)">
        <path d="M0 3950.93c13.5 0 13.5 31.5 13.5 63 0 25.55 0 51.11 7.21 59.84l.32.16" class="st5" />
    </g>
    <g id="shape139-548" transform="translate(1559.83 -3059.96)">
        <path d="M0 3932.93h90" class="st3" /><text x="25" y="3928.13" class="st4">规范类型</text></g>
    <g id="shape140-552" transform="translate(1532.83 -2951.96)">
        <path d="M0 3950.93c13.5 0 13.5-31.5 13.5-63 0-25.55 0-51.11 7.21-59.85l.32-.16" class="st5" />
    </g>
    <g id="shape141-557" transform="translate(1559.83 -3154.46)">
        <path d="M0 3932.93h90" class="st3" /><text x="10" y="3928.13" class="st4">作用域链和闭包</text></g>
    <g id="shape142-561" transform="translate(1532.83 -2951.96)">
        <path d="M0 3950.93c13.5 0 13.5-55.13 13.5-110.25 0-46.06 0-92.11 7.87-106.02l.29-.22" class="st5" />
    </g>
    <g id="shape143-566" transform="translate(1559.83 -3217.46)">
        <path d="M0 3932.93h90" class="st3" /><text x="15" y="3928.13" class="st4">原型链和多态</text></g>
    <g id="shape144-570" transform="translate(1532.83 -2951.96)">
        <path d="M0 3950.93c13.5 0 13.5-70.88 13.5-141.75 0-60.1 0-120.19 8.23-137.08l.27-.24" class="st5" />
    </g>
    <g id="shape145-575" transform="translate(1676.83 -2650.46)">
        <path d="M0 3932.93h90" class="st3" /><text x="30" y="3928.13" class="st4">原始值</text></g>
    <g id="shape146-579" transform="translate(1649.83 -2825.96)">
        <path d="M0 3950.93c13.5 0 13.5 39.37 13.5 78.75 0 32.29 0 64.58 7.45 75.16l.31.18" class="st5" />
    </g>
    <g id="shape147-584" transform="translate(1676.83 -2744.96)">
        <path d="M0 3932.93h90" class="st3" /><text x="25" y="3928.13" class="st4">对象类型</text></g>
    <g id="shape148-588" transform="translate(1649.83 -2825.96)">
        <path d="M0 3950.93c11.34 0 13.15 44.45 21.44 58.67l.29.23" class="st5" />
    </g>
    <g id="shape149-593" transform="translate(1676.83 -2839.46)">
        <path d="M0 3932.93h90" class="st3" /><text x="35" y="3928.13" class="st4">null</text></g>
    <g id="shape150-597" transform="translate(1649.83 -2825.96)">
        <path d="M0 3950.93c10.95 0 13.02-20.72 20.61-28.55l.33-.15" class="st5" />
    </g>
    <g id="shape151-602" transform="translate(1676.83 -2902.46)">
        <path d="M0 3932.93h90" class="st3" /><text x="5" y="3928.13" class="st4">undefined与empty</text></g>
    <g id="shape152-606" transform="translate(1649.83 -2825.96)">
        <path d="M0 3950.93c13.5 0 13.5-23.63 13.5-47.25 0-18.94 0-37.88 6.96-44.65l.33-.13" class="st5" />
    </g>
    <g id="shape153-611" transform="translate(1676.83 -3028.46)">
        <path d="M0 3932.93h90" class="st3" /><text x="2.5" y="3916.13" class="st4">引用(对象+字段 or <tspan x="10" dy="1.2em"
                class="st8">作用域</tspan>+标识符)</text></g>
    <g id="shape154-616" transform="translate(1649.83 -3077.96)">
        <path d="M0 3950.93c10.95 0 13.02 20.72 20.61 28.55l.33.15" class="st5" />
    </g>
    <g id="shape155-621" transform="translate(1676.83 -3091.46)">
        <path d="M0 3932.93h90" class="st3" /><text x="15" y="3904.13" class="st4">语句执行结果<tspan x="17.5" dy="1.2em"
                class="st8">(Completion </tspan>
            <tspan x="27.5" dy="1.2em" class="st8">Record)</tspan>
        </text></g>
    <g id="shape156-627" transform="translate(1649.83 -3077.96)">
        <path d="M0 3950.93c10.95 0 13.02-20.72 20.61-28.55l.33-.15" class="st5" />
    </g>
    <g id="shape159-632" transform="translate(1676.83 -2965.46)">
        <path d="M0 3932.93h90" class="st3" /><text x="25" y="3928.13" class="st4">类型转换</text></g>
    <g id="shape160-636" transform="translate(1649.83 -2825.96)">
        <path d="M0 3950.93c13.5 0 13.5-39.38 13.5-78.75 0-32.29 0-64.58 7.45-75.16l.31-.18" class="st5" />
    </g>
    <g id="shape161-641" transform="translate(1793.83 -2713.46)">
        <path d="M0 3932.93h90" class="st3" /><text x="25" y="3928.13" class="st4">普通对象</text></g>
    <g id="shape162-645" transform="translate(1766.83 -2762.96)">
        <path d="M0 3950.93c10.95 0 13.02 20.72 20.61 28.55l.33.15" class="st5" />
    </g>
    <g id="shape163-650" transform="translate(1793.83 -2776.46)">
        <path d="M0 3932.93h90" class="st3" /><text x="25" y="3928.13" class="st4">原子对象</text></g>
    <g id="shape164-654" transform="translate(1766.83 -2762.96)">
        <path d="M0 3950.93c10.95 0 13.02-20.72 20.61-28.55l.33-.15" class="st5" />
    </g>
    <g id="shape1000-659" transform="translate(920.835 -350.965)">
        <path d="M0 3932.93h90" class="st3" /><text x="27.5" y="3928.13" class="st4">as SGML</text></g>
    <g id="shape1001-663" transform="translate(1037.83 -1030.46)">
        <path d="M0 3950.93c-13.5 0-13.5 165.37-13.5 330.75 0 147.15 0 294.31-9.51 324.95l-.21.29" class="st5" />
    </g>
    <g id="shape1002-668" transform="translate(920.835 -539.965)">
        <path d="M0 3932.93h90" class="st3" /><text x="30" y="3928.13" class="st4">as XML</text></g>
    <g id="shape1003-672" transform="translate(1037.83 -1030.46)">
        <path d="M0 3950.93c-13.5 0-13.5 118.12-13.5 236.25 0 103.2 0 206.41-9 230.83l-.23.28" class="st5" />
    </g>
    <g id="shape1004-677" transform="translate(803.835 -319.465)">
        <path d="M0 3932.93h90" class="st3" /><text x="37.5" y="3928.13" class="st4">DTD</text></g>
    <g id="shape1005-681" transform="translate(920.835 -368.965)">
        <path d="M0 3950.93c-10.95 0-13.02 20.72-20.61 28.55l-.33.15" class="st5" />
    </g>
    <g id="shape1006-686" transform="translate(803.835 -382.465)">
        <path d="M0 3932.93h90" class="st3" /><text x="15" y="3928.13" class="st4">字符实体引用</text></g>
    <g id="shape1007-690" transform="translate(920.835 -368.965)">
        <path d="M0 3950.93c-10.95 0-13.02-20.72-20.61-28.55l-.33-.15" class="st5" />
    </g>
    <g id="shape1008-695" transform="translate(803.835 -508.465)">
        <path d="M0 3932.93h90" class="st3" /><text x="25" y="3928.13" class="st4">命名空间</text></g>
    <g id="shape1009-699" transform="translate(920.835 -557.965)">
        <path d="M0 3950.93c-10.95 0-13.02 20.72-20.61 28.55l-.33.15" class="st5" />
    </g>
    <g id="shape1010-704" transform="translate(803.835 -571.465)">
        <path d="M0 3932.93h90" class="st3" /><text x="35" y="3928.13" class="st4">标记</text></g>
    <g id="shape1011-708" transform="translate(920.835 -557.965)">
        <path d="M0 3950.93c-10.95 0-13.02-20.72-20.61-28.55l-.33-.15" class="st5" />
    </g>
    <g id="shape1012-713" transform="translate(920.835 -1232.96)">
        <path d="M0 3932.93h90" class="st3" /><text x="25" y="3928.13" class="st4">HTML文法</text></g>
    <g id="shape1013-717" transform="translate(1037.83 -1030.46)">
        <path d="M0 3950.93c-13.5 0-13.5-55.13-13.5-110.25 0-46.06 0-92.11-7.87-106.02l-.29-.22" class="st5" />
    </g>
    <g id="shape1014-722" transform="translate(803.835 -854.965)">
        <path d="M0 3932.93h90" class="st3" /><text x="35" y="3928.13" class="st4">词法</text></g>
    <g id="shape1015-726" transform="translate(920.835 -1250.96)">
        <path d="M0 3950.93c-13.5 0-13.5 94.5-13.5 189 0 81.51 0 163.01-8.66 183.88l-.25.27" class="st5" />
    </g>
    <g id="shape1016-731" transform="translate(803.835 -1421.96)">
        <path d="M0 3932.93h90" class="st3" /><text x="35" y="3928.13" class="st4">语法</text></g>
    <g id="shape1017-735" transform="translate(920.835 -1250.96)">
        <path d="M0 3950.93c-13.5 0-13.5-47.25-13.5-94.5 0-39.13 0-78.27-7.67-90.56l-.3-.2" class="st5" />
    </g>
    <g id="shape1018-740" transform="translate(686.835 -1012.46)">
        <path d="M0 3932.93h90" class="st3" /><text x="35" y="3928.13" class="st4">注释</text></g>
    <g id="shape1019-744" transform="translate(803.835 -872.965)">
        <path d="M0 3950.93c-13.5 0-13.5-39.38-13.5-78.75 0-32.29 0-64.58-7.45-75.16l-.31-.18" class="st5" />
    </g>
    <g id="shape1022-749" transform="translate(803.835 -634.465)">
        <path d="M0 3932.93h90" class="st3" /><text x="32.5" y="3928.13" class="st4">CDATA</text></g>
    <g id="shape1023-753" transform="translate(920.835 -557.965)">
        <path d="M0 3950.93c-13.5 0-13.5-23.63-13.5-47.25 0-18.94 0-37.88-6.96-44.65l-.33-.13" class="st5" />
    </g>
    <g id="shape1024-758" transform="translate(920.835 -256.465)">
        <path d="M0 3932.93h90" class="st3" /><text x="17.5" y="3928.13" class="st4">Server Page</text></g>
    <g id="shape1025-762" transform="translate(1037.83 -1030.46)">
        <path d="M0 3950.93c-13.5 0-13.5 189-13.5 378 0 169.32 0 338.65-9.71 372.07l-.19.3" class="st5" />
    </g>
    <g id="shape1026-767" transform="translate(803.835 -256.465)">
        <path d="M0 3932.93h90" class="st3" /><text x="22.5" y="3928.13" class="st4">ScriptLet</text></g>
    <g id="shape1027-771" transform="translate(920.835 -267.378)">
        <path d="M0 3943.84h-19.96" class="st7" />
    </g>
    <g id="shape1028-776" transform="translate(803.835 -445.465)">
        <path d="M0 3932.93h90" class="st3" /><text x="17.5" y="3928.13" class="st4">Declaration</text></g>
    <g id="shape1029-780" transform="translate(920.835 -557.965)">
        <path d="M0 3950.93c-13.5 0-13.5 23.62-13.5 47.25 0 18.94 0 37.88-6.96 44.65l-.33.13" class="st5" />
    </g>
    <g id="shape1030-785" transform="translate(686.835 -697.465)">
        <path d="M0 3932.93h90" class="st3" /><text x="25" y="3928.13" class="st4">空白字符</text></g>
    <g id="shape1031-789" transform="translate(803.835 -872.965)">
        <path d="M0 3950.93c-13.5 0-13.5 39.37-13.5 78.75 0 32.29 0 64.58-7.45 75.16l-.31.18" class="st5" />
    </g>
    <g id="shape1036-794" transform="translate(686.835 -760.465)">
        <path d="M0 3932.93h90" class="st3" /><text x="30" y="3928.13" class="st4">标记名</text></g>
    <g id="shape1037-798" transform="translate(803.835 -872.965)">
        <path d="M0 3950.93c-13.5 0-13.5 23.62-13.5 47.25 0 18.94 0 37.88-6.96 44.65l-.33.13" class="st5" />
    </g>
    <g id="shape1038-803" transform="translate(686.835 -823.465)">
        <path d="M0 3932.93h90" class="st3" /><text x="25" y="3928.13" class="st4">HTML文本</text></g>
    <g id="shape1039-807" transform="translate(803.835 -872.965)">
        <path d="M0 3950.93c-10.95 0-13.02 20.72-20.61 28.55l-.33.15" class="st5" />
    </g>
    <g id="shape1040-812" transform="translate(686.835 -886.465)">
        <path d="M0 3932.93h90" class="st3" /><text x="35" y="3928.13" class="st4">属性</text></g>
    <g id="shape1041-816" transform="translate(803.835 -872.965)">
        <path d="M0 3950.93c-10.95 0-13.02-20.72-20.61-28.55l-.33-.15" class="st5" />
    </g>
    <g id="shape1054-821" transform="translate(686.835 -949.465)">
        <path d="M0 3932.93h90" class="st3" /><text x="27.5" y="3928.13" class="st4">Doctype</text></g>
    <g id="shape1055-825" transform="translate(803.835 -872.965)">
        <path d="M0 3950.93c-13.5 0-13.5-23.63-13.5-47.25 0-18.94 0-37.88-6.96-44.65l-.33-.13" class="st5" />
    </g>
    <g id="shape1060-830" transform="translate(686.835 -1075.46)">
        <path d="M0 3932.93h90" class="st3" /><text x="25" y="3928.13" class="st4">document</text></g>
    <g id="shape1061-834" transform="translate(803.835 -1439.96)">
        <path d="M0 3950.93c-13.5 0-13.5 86.62-13.5 173.25 0 74.33 0 148.66-8.53 168.26l-.25.26" class="st5" />
    </g>
    <g id="shape1062-839" transform="translate(686.835 -1138.46)">
        <path d="M0 3932.93h90" class="st3" /><text x="35" y="3928.13" class="st4">head</text></g>
    <g id="shape1063-843" transform="translate(803.835 -1439.96)">
        <path d="M0 3950.93c-13.5 0-13.5 70.87-13.5 141.75 0 60.1 0 120.19-8.23 137.08l-.27.24" class="st5" />
    </g>
    <g id="shape1064-848" transform="translate(686.835 -1201.46)">
        <path d="M0 3932.93h90" class="st3" /><text x="35" y="3928.13" class="st4">body</text></g>
    <g id="shape1065-852" transform="translate(803.835 -1439.96)">
        <path d="M0 3950.93c-13.5 0-13.5 55.12-13.5 110.25 0 46.05 0 92.11-7.87 106.02l-.29.21" class="st5" />
    </g>
    <g id="shape1066-857" transform="translate(686.835 -1390.46)">
        <path d="M0 3932.93h90" class="st3" /><text x="27.5" y="3928.13" class="st4">element</text></g>
    <g id="shape1067-861" transform="translate(803.835 -1439.96)">
        <path d="M0 3950.93c-10.95 0-13.02 20.72-20.61 28.55l-.33.15" class="st5" />
    </g>
    <g id="shape1068-866" transform="translate(686.835 -1579.46)">
        <path d="M0 3932.93h90" class="st3" /><text x="32.5" y="3928.13" class="st4">cdata</text></g>
    <g id="shape1069-870" transform="translate(803.835 -1439.96)">
        <path d="M0 3950.93c-13.5 0-13.5-39.38-13.5-78.75 0-32.29 0-64.58-7.45-75.16l-.31-.18" class="st5" />
    </g>
    <g id="shape1070-875" transform="translate(686.835 -1642.46)">
        <path d="M0 3932.93h90" class="st3" /><text x="27.5" y="3928.13" class="st4">comment</text></g>
    <g id="shape1071-879" transform="translate(803.835 -1439.96)">
        <path d="M0 3950.93c-13.5 0-13.5-55.13-13.5-110.25 0-46.06 0-92.11-7.87-106.02l-.29-.22" class="st5" />
    </g>
    <g id="shape1072-884" transform="translate(686.835 -1736.96)">
        <path d="M0 3932.93h90" class="st3" /><text x="22.5" y="3928.13" class="st4">attribute</text></g>
    <g id="shape1073-888" transform="translate(803.835 -1439.96)">
        <path d="M0 3950.93c-13.5 0-13.5-78.75-13.5-157.5 0-67.19 0-134.39-8.39-152.66l-.26-.25" class="st5" />
    </g>
    <g id="shape1074-893" transform="translate(569.835 -1642.46)">
        <path d="M0 3932.93h90" class="st3" /><text x="25" y="3928.13" class="st4">条件注释</text></g>
    <g id="shape1075-897" transform="translate(686.835 -1653.38)">
        <path d="M0 3943.84h-19.96" class="st7" />
    </g>
    <g id="shape1076-902" transform="translate(569.835 -1264.46)">
        <path d="M0 3932.93h90" class="st3" /><text x="25" y="3928.13" class="st4">通用标记</text></g>
    <g id="shape1077-906" transform="translate(686.835 -1408.46)">
        <path d="M0 3950.93c-13.5 0-13.5 31.5-13.5 63 0 25.55 0 51.11-7.21 59.84l-.32.16" class="st5" />
    </g>
    <g id="shape1078-911" transform="translate(569.835 -1327.46)">
        <path d="M0 3932.93h90" class="st3" /><text x="20" y="3928.13" class="st4">语义化标记</text></g>
    <g id="shape1079-915" transform="translate(686.835 -1408.46)">
        <path d="M0 3950.93c-11.34 0-13.15 44.45-21.44 58.67l-.29.23" class="st5" />
    </g>
    <g id="shape1080-920" transform="translate(569.835 -1390.46)">
        <path d="M0 3932.93h90" class="st3" /><text x="25" y="3928.13" class="st4">功能标记</text></g>
    <g id="shape1081-924" transform="translate(686.835 -1401.38)">
        <path d="M0 3943.84h-19.96" class="st7" />
    </g>
    <g id="shape1082-929" transform="translate(569.835 -1453.46)">
        <path d="M0 3932.93h90" class="st3" /><text x="35" y="3928.13" class="st4">脚本</text></g>
    <g id="shape1083-933" transform="translate(686.835 -1408.46)">
        <path d="M0 3950.93c-11.34 0-13.15-44.45-21.44-58.68l-.29-.22" class="st5" />
    </g>
    <g id="shape1084-938" transform="translate(569.835 -1516.46)">
        <path d="M0 3932.93h90" class="st3" /><text x="35" y="3928.13" class="st4">样式</text></g>
    <g id="shape1085-942" transform="translate(686.835 -1408.46)">
        <path d="M0 3950.93c-13.5 0-13.5-31.5-13.5-63 0-25.55 0-51.11-7.21-59.85l-.32-.16" class="st5" />
    </g>
    <g id="shape1086-947" transform="translate(569.835 -1705.46)">
        <path d="M0 3932.93h90" class="st3" /><text x="30" y="3928.13" class="st4">属性名</text></g>
    <g id="shape1087-951" transform="translate(686.835 -1754.96)">
        <path d="M0 3950.93c-10.95 0-13.02 20.72-20.61 28.55l-.33.15" class="st5" />
    </g>
    <g id="shape1088-956" transform="translate(569.835 -1768.46)">
        <path d="M0 3932.93h90" class="st3" /><text x="30" y="3928.13" class="st4">属性值</text></g>
    <g id="shape1089-960" transform="translate(686.835 -1754.96)">
        <path d="M0 3950.93c-10.95 0-13.02-20.72-20.61-28.55l-.33-.15" class="st5" />
    </g>
    <g id="shape1090-965" transform="translate(920.835 -1925.96)">
        <path d="M0 3932.93h90" class="st3" /><text x="35" y="3928.13" class="st4">文法</text></g>
    <g id="shape1091-969" transform="translate(1037.83 -2762.96)">
        <path d="M0 3950.93c-13.5 0-13.5 204.75-13.5 409.5 0 184.16 0 368.32-9.82 403.5l-.19.3" class="st5" />
    </g>
    <g id="shape1092-974" transform="translate(920.835 -2713.46)">
        <path d="M0 3932.93h90" class="st3" /><text x="35" y="3928.13" class="st4">规则</text></g>
    <g id="shape1093-978" transform="translate(1037.83 -2762.96)">
        <path d="M0 3950.93c-10.95 0-13.02 20.72-20.61 28.55l-.33.15" class="st5" />
    </g>
    <g id="shape1094-983" transform="translate(920.835 -3532.46)">
        <path d="M0 3932.93h90" class="st3" /><text x="35" y="3928.13" class="st4">机制</text></g>
    <g id="shape1095-987" transform="translate(1037.83 -2762.96)">
        <path d="M0 3950.93c-13.5 0-13.5-196.88-13.5-393.75 0-176.74 0-353.48-9.77-387.78l-.19-.31" class="st5" />
    </g>
    <g id="shape1096-992" transform="translate(803.835 -2366.96)">
        <path d="M0 3932.93h90" class="st3" /><text x="32.5" y="3928.13" class="st4">@规则</text></g>
    <g id="shape1097-996" transform="translate(920.835 -2731.46)">
        <path d="M0 3950.93c-13.5 0-13.5 86.62-13.5 173.25 0 74.33 0 148.66-8.53 168.26l-.25.26" class="st5" />
    </g>
    <g id="shape1098-1001" transform="translate(803.835 -3028.46)">
        <path d="M0 3932.93h90" class="st3" /><text x="25" y="3928.13" class="st4">普通规则</text></g>
    <g id="shape1099-1005" transform="translate(920.835 -2731.46)">
        <path d="M0 3950.93c-13.5 0-13.5-78.75-13.5-157.5 0-67.19 0-134.39-8.39-152.66l-.26-.25" class="st5" />
    </g>
    <g id="shape1100-1010" transform="translate(803.835 -1831.46)">
        <path d="M0 3932.93h90" class="st3" /><text x="32.5" y="3928.13" class="st4">@rule</text></g>
    <g id="shape1101-1014" transform="translate(920.835 -1943.96)">
        <path d="M0 3950.93c-13.5 0-13.5 23.62-13.5 47.25 0 18.94 0 37.88-6.96 44.65l-.33.13" class="st5" />
    </g>
    <g id="shape1102-1019" transform="translate(803.835 -1894.46)">
        <path d="M0 3932.93h90" class="st3" /><text x="25" y="3928.13" class="st4">基本语法</text></g>
    <g id="shape1103-1023" transform="translate(920.835 -1943.96)">
        <path d="M0 3950.93c-10.95 0-13.02 20.72-20.61 28.55l-.33.15" class="st5" />
    </g>
    <g id="shape1106-1028" transform="translate(803.835 -1957.46)">
        <path d="M0 3932.93h90" class="st3" /><text x="25" y="3928.13" class="st4">variable</text></g>
    <g id="shape1107-1032" transform="translate(920.835 -1943.96)">
        <path d="M0 3950.93c-10.95 0-13.02-20.72-20.61-28.55l-.33-.15" class="st5" />
    </g>
    <g id="shape1108-1037" transform="translate(803.835 -2020.46)">
        <path d="M0 3932.93h90" class="st3" /><text x="35" y="3928.13" class="st4">calc</text></g>
    <g id="shape1109-1041" transform="translate(920.835 -1943.96)">
        <path d="M0 3950.93c-13.5 0-13.5-23.63-13.5-47.25 0-18.94 0-37.88-6.96-44.65l-.33-.13" class="st5" />
    </g>
    <g id="shape1110-1046" transform="translate(686.835 -2083.46)">
        <path d="M0 3932.93h90" class="st3" /><text x="27.5" y="3928.13" class="st4">charset</text></g>
    <g id="shape1111-1050" transform="translate(803.835 -2384.96)">
        <path d="M0 3950.93c-13.5 0-13.5 70.87-13.5 141.75 0 60.1 0 120.19-8.23 137.08l-.27.24" class="st5" />
    </g>
    <g id="shape1112-1055" transform="translate(686.835 -2146.46)">
        <path d="M0 3932.93h90" class="st3" /><text x="30" y="3928.13" class="st4">import</text></g>
    <g id="shape1113-1059" transform="translate(803.835 -2384.96)">
        <path d="M0 3950.93c-13.5 0-13.5 55.12-13.5 110.25 0 46.05 0 92.11-7.87 106.02l-.29.21" class="st5" />
    </g>
    <g id="shape1114-1064" transform="translate(686.835 -2209.46)">
        <path d="M0 3932.93h90" class="st3" /><text x="17.5" y="3928.13" class="st4">media query</text></g>
    <g id="shape1115-1068" transform="translate(803.835 -2384.96)">
        <path d="M0 3950.93c-13.5 0-13.5 39.37-13.5 78.75 0 32.29 0 64.58-7.45 75.16l-.31.18" class="st5" />
    </g>
    <g id="shape1116-1073" transform="translate(686.835 -2272.46)">
        <path d="M0 3932.93h90" class="st3" /><text x="35" y="3928.13" class="st4">page</text></g>
    <g id="shape1117-1077" transform="translate(803.835 -2384.96)">
        <path d="M0 3950.93c-13.5 0-13.5 23.62-13.5 47.25 0 18.94 0 37.88-6.96 44.65l-.33.13" class="st5" />
    </g>
    <g id="shape1118-1082" transform="translate(686.835 -2335.46)">
        <path d="M0 3932.93h90" class="st3" /><text x="12.5" y="3928.13" class="st4">counter-style</text></g>
    <g id="shape1119-1086" transform="translate(803.835 -2384.96)">
        <path d="M0 3950.93c-10.95 0-13.02 20.72-20.61 28.55l-.33.15" class="st5" />
    </g>
    <g id="shape1120-1091" transform="translate(686.835 -2398.46)">
        <path d="M0 3932.93h90" class="st3" /><text x="20" y="3928.13" class="st4">key-frames</text></g>
    <g id="shape1121-1095" transform="translate(803.835 -2384.96)">
        <path d="M0 3950.93c-10.95 0-13.02-20.72-20.61-28.55l-.33-.15" class="st5" />
    </g>
    <g id="shape1122-1100" transform="translate(686.835 -2461.46)">
        <path d="M0 3932.93h90" class="st3" /><text x="25" y="3928.13" class="st4">fontface</text></g>
    <g id="shape1123-1104" transform="translate(803.835 -2384.96)">
        <path d="M0 3950.93c-13.5 0-13.5-23.63-13.5-47.25 0-18.94 0-37.88-6.96-44.65l-.33-.13" class="st5" />
    </g>
    <g id="shape1124-1109" transform="translate(686.835 -2524.46)">
        <path d="M0 3932.93h90" class="st3" /><text x="27.5" y="3928.13" class="st4">support</text></g>
    <g id="shape1125-1113" transform="translate(803.835 -2384.96)">
        <path d="M0 3950.93c-13.5 0-13.5-39.38-13.5-78.75 0-32.29 0-64.58-7.45-75.16l-.31-.18" class="st5" />
    </g>
    <g id="shape1126-1118" transform="translate(686.835 -2587.46)">
        <path d="M0 3932.93h90" class="st3" /><text x="22.5" y="3928.13" class="st4">namespace</text></g>
    <g id="shape1127-1122" transform="translate(803.835 -2384.96)">
        <path d="M0 3950.93c-13.5 0-13.5-55.13-13.5-110.25 0-46.06 0-92.11-7.87-106.02l-.29-.22" class="st5" />
    </g>
    <g id="shape1128-1127" transform="translate(686.835 -2650.46)">
        <path d="M0 3932.93h90" class="st3" /><text x="25" y="3928.13" class="st4">viewport</text></g>
    <g id="shape1129-1131" transform="translate(803.835 -2384.96)">
        <path d="M0 3950.93c-13.5 0-13.5-70.88-13.5-141.75 0-60.1 0-120.19-8.23-137.08l-.27-.24" class="st5" />
    </g>
    <g id="shape1130-1136" transform="translate(796.748 -2384.96)">
        <path d="M1.92 3959.73l-.18.31c-8.15 32.29-8.15 145.47-8.15 258.64 0 113.17 0 226.35 8.15 258.64l.18.31"
            marker-end="url(#mrkr13-1144)" marker-start="url(#mrkr13-1142)" stroke="#156193" stroke-dasharray="7,5"
            stroke-linecap="round" stroke-linejoin="round" />
    </g>
    <g id="shape1131-1145" transform="translate(686.835 -2965.46)">
        <path d="M0 3932.93h90" class="st3" /><text x="30" y="3928.13" class="st4">选择器</text></g>
    <g id="shape1132-1149" transform="translate(803.835 -3046.46)">
        <path d="M0 3950.93c-11.34 0-13.15 44.45-21.44 58.67l-.29.23" class="st5" />
    </g>
    <g id="shape1133-1154" transform="translate(686.835 -3280.46)">
        <path d="M0 3932.93h90" class="st3" /><text x="35" y="3928.13" class="st4">属性</text></g>
    <g id="shape1134-1158" transform="translate(803.835 -3046.46)">
        <path d="M0 3950.93c-13.5 0-13.5-63-13.5-126 0-53.05 0-106.1-8.06-121.53l-.28-.23" class="st5" />
    </g>
    <g id="shape1135-1163" transform="translate(686.835 -3343.46)">
        <path d="M0 3932.93h90" class="st3" /><text x="32.5" y="3928.13" class="st4">CSS值</text></g>
    <g id="shape1136-1167" transform="translate(803.835 -3046.46)">
        <path d="M0 3950.93c-13.5 0-13.5-78.75-13.5-157.5 0-67.19 0-134.39-8.39-152.66l-.26-.25" class="st5" />
    </g>
    <g id="shape1137-1172" transform="translate(569.835 -2870.96)">
        <path d="M0 3932.93h90" class="st3" /><text x="20" y="3928.13" class="st4">简单选择器</text></g>
    <g id="shape1138-1176" transform="translate(686.835 -2983.46)">
        <path d="M0 3950.93c-13.5 0-13.5 23.62-13.5 47.25 0 18.94 0 37.88-6.96 44.65l-.33.13" class="st5" />
    </g>
    <g id="shape1139-1181" transform="translate(569.835 -3091.46)">
        <path d="M0 3932.93h90" class="st3" /><text x="20" y="3928.13" class="st4">复合选择器</text></g>
    <g id="shape1140-1185" transform="translate(686.835 -2983.46)">
        <path d="M0 3950.93c-13.5 0-13.5-31.5-13.5-63 0-25.55 0-51.11-7.21-59.85l-.32-.16" class="st5" />
    </g>
    <g id="shape1141-1190" transform="translate(569.835 -3154.46)">
        <path d="M0 3932.93h90" class="st3" /><text x="20" y="3928.13" class="st4">复杂选择器</text></g>
    <g id="shape1142-1194" transform="translate(686.835 -2983.46)">
        <path d="M0 3950.93c-13.5 0-13.5-47.25-13.5-94.5 0-39.13 0-78.27-7.67-90.56l-.3-.2" class="st5" />
    </g>
    <g id="shape1143-1199" transform="translate(569.835 -3217.46)">
        <path d="M0 3932.93h90" class="st3" /><text x="5" y="3916.13" class="st4">选择器列表（表示<tspan x="25" dy="1.2em"
                class="st8">or</tspan>关系）</text></g>
    <g id="shape1144-1204" transform="translate(686.835 -2983.46)">
        <path d="M0 3950.93c-13.5 0-13.5-63-13.5-126 0-53.05 0-106.1-8.06-121.53l-.28-.23" class="st5" />
    </g>
    <g id="shape1145-1209" transform="translate(452.835 -2902.46)">
        <path d="M0 3932.93h90" class="st3" /><text x="20" y="3928.13" class="st4">类型选择器</text></g>
    <g id="shape1146-1213" transform="translate(569.835 -2888.96)">
        <path d="M0 3950.93c-10.95 0-13.02-20.72-20.61-28.55l-.33-.15" class="st5" />
    </g>
    <g id="shape1147-1218" transform="translate(452.835 -2965.46)">
        <path d="M0 3932.93h90" class="st3" /><text x="25" y="3928.13" class="st4">id选择器</text></g>
    <g id="shape1148-1222" transform="translate(569.835 -2888.96)">
        <path d="M0 3950.93c-13.5 0-13.5-23.63-13.5-47.25 0-18.94 0-37.88-6.96-44.65l-.33-.13" class="st5" />
    </g>
    <g id="shape1149-1227" transform="translate(452.835 -3028.46)">
        <path d="M0 3932.93h90" class="st3" /><text x="17.5" y="3928.13" class="st4">class选择器</text></g>
    <g id="shape1150-1231" transform="translate(569.835 -2888.96)">
        <path d="M0 3950.93c-13.5 0-13.5-39.38-13.5-78.75 0-32.29 0-64.58-7.45-75.16l-.31-.18" class="st5" />
    </g>
    <g id="shape1151-1236" transform="translate(452.835 -2713.46)">
        <path d="M0 3932.93h90" class="st3" /><text x="20" y="3928.13" class="st4">属性选择器</text></g>
    <g id="shape1152-1240" transform="translate(569.835 -2888.96)">
        <path d="M0 3950.93c-13.5 0-13.5 39.37-13.5 78.75 0 32.29 0 64.58-7.45 75.16l-.31.18" class="st5" />
    </g>
    <g id="shape1153-1245" transform="translate(452.835 -2776.46)">
        <path d="M0 3932.93h90" class="st3" /><text x="20" y="3928.13" class="st4">全体选择器</text></g>
    <g id="shape1154-1249" transform="translate(569.835 -2888.96)">
        <path d="M0 3950.93c-13.5 0-13.5 23.62-13.5 47.25 0 18.94 0 37.88-6.96 44.65l-.33.13" class="st5" />
    </g>
    <g id="shape1155-1254" transform="translate(452.835 -2839.46)">
        <path d="M0 3932.93h90" class="st3" /><text x="20" y="3928.13" class="st4">伪类选择器</text></g>
    <g id="shape1156-1258" transform="translate(569.835 -2888.96)">
        <path d="M0 3950.93c-10.95 0-13.02 20.72-20.61 28.55l-.33.15" class="st5" />
    </g>
    <g id="shape1157-1263" transform="translate(803.835 -3437.96)">
        <path d="M0 3932.93h90" class="st3" /><text x="35" y="3928.13" class="st4">排版</text></g>
    <g id="shape1158-1267" transform="translate(920.835 -3550.46)">
        <path d="M0 3950.93c-13.5 0-13.5 23.62-13.5 47.25 0 18.94 0 37.88-6.96 44.65l-.33.13" class="st5" />
    </g>
    <g id="shape1159-1272" transform="translate(803.835 -3532.46)">
        <path d="M0 3932.93h90" class="st3" /><text x="30" y="3928.13" class="st4">伪元素</text></g>
    <g id="shape1160-1276" transform="translate(920.835 -3543.38)">
        <path d="M0 3943.84h-19.96" class="st7" />
    </g>
    <g id="shape1161-1281" transform="translate(803.835 -3595.46)">
        <path d="M0 3932.93h90" class="st3" /><text x="27.5" y="3928.13" class="st4">CSS动画</text></g>
    <g id="shape1162-1285" transform="translate(920.835 -3550.46)">
        <path d="M0 3950.93c-11.34 0-13.15-44.45-21.44-58.68l-.29-.22" class="st5" />
    </g>
    <g id="shape1163-1290" transform="translate(803.835 -3658.46)">
        <path d="M0 3932.93h90" class="st3" /><text x="20" y="3928.13" class="st4">规则优先级</text></g>
    <g id="shape1164-1294" transform="translate(920.835 -3550.46)">
        <path d="M0 3950.93c-13.5 0-13.5-31.5-13.5-63 0-25.55 0-51.11-7.21-59.85l-.32-.16" class="st5" />
    </g>
    <g id="shape1165-1299" transform="translate(686.835 -3406.46)">
        <path d="M0 3932.93h90" class="st3" /><text x="20" y="3928.13" class="st4">正常流排版</text></g>
    <g id="shape1166-1303" transform="translate(803.835 -3455.96)">
        <path d="M0 3950.93c-10.95 0-13.02 20.72-20.61 28.55l-.33.15" class="st5" />
    </g>
    <g id="shape1167-1308" transform="translate(686.835 -3469.46)">
        <path d="M0 3932.93h90" class="st3" /><text x="15" y="3928.13" class="st4">弹性盒子排版</text></g>
    <g id="shape1168-1312" transform="translate(803.835 -3455.96)">
        <path d="M0 3950.93c-10.95 0-13.02-20.72-20.61-28.55l-.33-.15" class="st5" />
    </g>
    <g id="shape1169-1317" transform="translate(1442.83 -3374.96)">
        <path d="M0 3932.93h90" class="st3" /><text x="30" y="3928.13" class="st4">浏览器</text></g>
    <g id="shape1170-1321" transform="translate(1415.83 -3518.96)">
        <path d="M0 3950.93c13.5 0 13.5 31.5 13.5 63 0 25.55 0 51.11 7.21 59.84l.32.16" class="st5" />
    </g>
    <g id="shape1171-1326" transform="translate(1442.83 -3532.46)">
        <path d="M0 3932.93h90" class="st3" /><text x="27.5" y="3928.13" class="st4">Node.js</text></g>
    <g id="shape1172-1330" transform="translate(1415.83 -3518.96)">
        <path d="M0 3950.93c10.95 0 13.02-20.72 20.61-28.55l.33-.15" class="st5" />
    </g>
    <g id="shape1173-1335" transform="translate(1442.83 -3595.46)">
        <path d="M0 3932.93h90" class="st3" /><text x="25" y="3928.13" class="st4">Electron</text></g>
    <g id="shape1174-1339" transform="translate(1415.83 -3518.96)">
        <path d="M0 3950.93c13.5 0 13.5-23.63 13.5-47.25 0-18.94 0-37.88 6.96-44.65l.33-.13" class="st5" />
    </g>
    <g id="shape1175-1344" transform="translate(1442.83 -3658.46)">
        <path d="M0 3932.93h90" class="st3" /><text x="17.5" y="3928.13" class="st4">ReactNative</text></g>
    <g id="shape1176-1348" transform="translate(1415.83 -3518.96)">
        <path d="M0 3950.93c13.5 0 13.5-39.38 13.5-78.75 0-32.29 0-64.58 7.45-75.16l.31-.18" class="st5" />
    </g>
    <g id="shape1177-1353" transform="translate(1442.83 -3721.46)">
        <path d="M0 3932.93h90" class="st3" /><text x="12.5" y="3928.13" class="st4">小程序/快应用</text></g>
    <g id="shape1178-1357" transform="translate(1415.83 -3518.96)">
        <path d="M0 3950.93c13.5 0 13.5-55.13 13.5-110.25 0-46.06 0-92.11 7.87-106.02l.29-.22" class="st5" />
    </g>
    <g id="shape1179-1362" transform="translate(1559.83 -3343.46)">
        <path d="M0 3932.93h90" class="st3" /><text x="37.5" y="3928.13" class="st4">DOM</text></g>
    <g id="shape1180-1366" transform="translate(1532.83 -3392.96)">
        <path d="M0 3950.93c10.95 0 13.02 20.72 20.61 28.55l.33.15" class="st5" />
    </g>
    <g id="shape1181-1371" transform="translate(1559.83 -3469.46)">
        <path d="M0 3932.93h90" class="st3" /><text x="37.5" y="3928.13" class="st4">BOM</text></g>
    <g id="shape1182-1375" transform="translate(1532.83 -3392.96)">
        <path d="M0 3950.93c13.5 0 13.5-23.63 13.5-47.25 0-18.94 0-37.88 6.96-44.65l.33-.13" class="st5" />
    </g>
    <g id="shape1183-1380" transform="translate(1676.83 -3280.46)">
        <path d="M0 3932.93h90" class="st3" /><text x="32.5" y="3928.13" class="st4">Nodes</text></g>
    <g id="shape1184-1384" transform="translate(1649.83 -3361.46)">
        <path d="M0 3950.93c11.34 0 13.15 44.45 21.44 58.67l.29.23" class="st5" />
    </g>
    <g id="shape1185-1389" transform="translate(1676.83 -3343.46)">
        <path d="M0 3932.93h90" class="st3" /><text x="30" y="3928.13" class="st4">Events</text></g>
    <g id="shape1186-1393" transform="translate(1649.83 -3354.38)">
        <path d="M0 3943.84h19.96" class="st7" />
    </g>
    <g id="shape1187-1398" transform="translate(1676.83 -3406.46)">
        <path d="M0 3932.93h90" class="st3" /><text x="30" y="3928.13" class="st4">Ranges</text></g>
    <g id="shape1188-1402" transform="translate(1649.83 -3361.46)">
        <path d="M0 3950.93c11.34 0 13.15-44.45 21.44-58.68l.29-.22" class="st5" />
    </g>
</svg>